# xmcd
#
# Track frame offsets: 
#        150
#        11433
#        33733
#        53958
#        70120
#        91145
#        108745
#        130420
#        142758
#        173696
#        188046
#        204721
#
# Disc length: 3010 seconds
#
# Revision: 0
# Processed by: cddbd v1.5.2PL0 Copyright (c) Steve Scherf et al.
# Submitted via: ExactAudioCopy v0.95b4
#
DISCID=a40bc00c
DTITLE=Fredl Fesl - Der bayerische Stier - CD 1
DYEAR=2005
DGENRE=Folklore
TTITLE0=Fussball-Lied
TTITLE1=Das Stachelschwein
TTITLE2=Das Lied vom Rausch
TTITLE3=Glocken-Song
TTITLE4=Der Saubärgrunzer
TTITLE5=Weil i net mog
TTITLE6=I hab de scho daseng
TTITLE7=Der Königsjodler
TTITLE8=Schulmeisterei
TTITLE9=Spieglein, Spieglein
TTITLE10=Ein Pferd hat vier Beiner
TTITLE11=Taxilied
EXTD=
EXTT0=
EXTT1=
EXTT2=
EXTT3=
EXTT4=
EXTT5=
EXTT6=
EXTT7=
EXTT8=
EXTT9=
EXTT10=
EXTT11=
PLAYORDER=
